<?xml version="1.0" encoding="utf-8"?>
<!-- Generator: Adobe Illustrator 26.0.3, SVG Export Plug-In . SVG Version: 6.00 Build 0)  -->
<svg version="1.1" id="Capa_1" xmlns="http://www.w3.org/2000/svg" xmlns:xlink="http://www.w3.org/1999/xlink" x="0px" y="0px"
	 viewBox="0 0 253.2 166" style="enable-background:new 0 0 253.2 166;" xml:space="preserve">
<style type="text/css">
	.st0{fill:#FFFFFF;}
</style>
<path class="st0" d="M24.8,142.4h2.5c0.7,0,1.4,0.1,2.1,0.4c0.6,0.3,1.1,0.7,1.4,1.3c0.3,0.6,0.5,1.2,0.5,1.9c0,0.7-0.2,1.3-0.5,1.9
	c-0.3,0.6-0.8,1-1.4,1.3c-0.7,0.3-1.4,0.5-2.1,0.4h-2.5V142.4z M27.3,148.3c0.6,0,1.3-0.2,1.8-0.6c0.4-0.5,0.7-1.1,0.6-1.7
	c0-0.6-0.2-1.3-0.6-1.7c-0.5-0.4-1.1-0.6-1.8-0.6h-1v4.6H27.3z"/>
<path class="st0" d="M41.7,149.7l-1.6-2.6l-1.8,2.6H37v-7.3h1.6v3.8v0.9l0.2-0.4l2.8-4.2h1.7l-2.3,3.5l2.5,3.8H41.7z"/>
<path class="st0" d="M56.7,149.7h-1.6V145l-2.1,3.4h-0.5l-2.1-3.4v4.7h-1.6v-7.3h1.7l2.2,3.6l2.2-3.6h1.7L56.7,149.7z"/>
<path class="st0" d="M66.8,149.7l-1.4-2.3h-1.1v2.3h-1.6v-7.3h2.8c0.5,0,1.1,0.1,1.6,0.3c0.4,0.2,0.8,0.5,1,0.9
	c0.5,0.8,0.5,1.8,0,2.6c-0.2,0.4-0.6,0.7-1,0.9l1.6,2.6H66.8z M66.5,144c-0.3-0.2-0.6-0.3-1-0.3h-1.2v2.3h1.2c0.4,0,0.7-0.1,1-0.3
	c0.2-0.2,0.4-0.5,0.4-0.8C66.8,144.5,66.7,144.2,66.5,144z"/>
<path class="st0" d="M81.6,145.9c0,0.2,0,0.4,0,0.7c-0.1,0.6-0.3,1.1-0.6,1.6c-0.3,0.5-0.8,0.9-1.3,1.1c-0.6,0.3-1.2,0.4-1.9,0.4
	c-0.7,0-1.4-0.2-2-0.5c-1.8-1.1-2.4-3.4-1.4-5.2c0.3-0.6,0.8-1,1.4-1.4c0.6-0.3,1.3-0.5,2-0.5c0.7,0,1.4,0.2,2,0.5
	c0.6,0.3,1,0.8,1.4,1.4l-1.4,0.7c-0.4-0.7-1.2-1.2-2-1.1c-0.4,0-0.8,0.1-1.2,0.3c-0.3,0.2-0.6,0.5-0.8,0.9c-0.2,0.4-0.3,0.8-0.3,1.2
	c0,0.4,0.1,0.8,0.3,1.2c0.2,0.3,0.5,0.6,0.8,0.8c0.4,0.2,0.8,0.3,1.2,0.3c0.5,0,1-0.1,1.4-0.4c0.4-0.3,0.6-0.7,0.7-1.1h-2.5v-1.3
	h4.3L81.6,145.9z"/>
<path class="st0" d="M88.8,149.3c-0.6-0.3-1-0.8-1.4-1.3c-0.6-1.2-0.6-2.7,0-3.9c0.3-0.6,0.8-1,1.4-1.4c1.3-0.6,2.8-0.6,4.1,0
	c0.6,0.3,1.1,0.8,1.4,1.4c0.6,1.2,0.6,2.7,0,3.9c-0.3,0.6-0.8,1-1.4,1.4C91.6,150,90.1,150,88.8,149.3L88.8,149.3z M89.6,144
	c-0.3,0.2-0.6,0.5-0.8,0.8c-0.2,0.4-0.3,0.8-0.3,1.2c0,0.4,0.1,0.8,0.3,1.2c0.2,0.3,0.5,0.6,0.8,0.8c0.7,0.4,1.6,0.4,2.3,0
	c0.3-0.2,0.6-0.5,0.8-0.8c0.2-0.4,0.3-0.8,0.3-1.2c0-0.4-0.1-0.8-0.3-1.2c-0.2-0.3-0.5-0.6-0.8-0.8C91.3,143.6,90.4,143.6,89.6,144
	L89.6,144z"/>
<path class="st0" d="M104.7,150.6v-9.1h1.3v9.1H104.7z"/>
<path class="st0" d="M120,149.7l-1.4-2.3h-1.1v2.3h-1.6v-7.3h2.8c0.5,0,1.1,0.1,1.6,0.3c0.4,0.2,0.8,0.5,1,0.9
	c0.2,0.4,0.4,0.8,0.4,1.3c0,0.5-0.1,0.9-0.4,1.3c-0.2,0.4-0.6,0.7-1,0.9l1.6,2.6H120z M119.7,144c-0.3-0.2-0.6-0.3-1-0.3h-1.2v2.3
	h1.2c0.4,0,0.7-0.1,1-0.3c0.2-0.2,0.4-0.5,0.3-0.8C120.1,144.5,120,144.2,119.7,144L119.7,144z"/>
<path class="st0" d="M129.1,145.4h3.1v1.3h-3.1v1.6h3.5v1.4h-5.1v-7.3h5.1v1.4h-3.5V145.4z"/>
<path class="st0" d="M141,148.4c0.9,0,1.3-0.3,1.3-0.8c0-0.2-0.1-0.3-0.2-0.4c-0.2-0.1-0.3-0.2-0.5-0.2c-0.2-0.1-0.5-0.1-0.9-0.2
	c-0.5-0.1-1-0.2-1.4-0.4c-0.4-0.1-0.7-0.4-1-0.7c-0.3-0.3-0.4-0.8-0.4-1.2c0-0.4,0.1-0.9,0.4-1.2c0.3-0.3,0.6-0.6,1.1-0.8
	c0.5-0.2,0.9-0.3,1.4-0.3c0.5,0,1.1,0.1,1.6,0.3c0.5,0.2,0.9,0.4,1.3,0.7l-0.8,1.1c-0.3-0.2-0.6-0.4-1-0.5c-0.4-0.1-0.8-0.2-1.1-0.2
	c-0.3,0-0.6,0.1-0.9,0.2c-0.2,0.1-0.3,0.3-0.3,0.6c0,0.1,0.1,0.3,0.2,0.4c0.1,0.1,0.3,0.2,0.5,0.2c0.2,0.1,0.5,0.1,0.9,0.2
	c0.5,0.1,1,0.2,1.5,0.4c0.4,0.1,0.7,0.4,1,0.7c0.3,0.3,0.5,0.8,0.4,1.3c0,0.6-0.3,1.3-0.8,1.6c-0.6,0.4-1.3,0.6-2.1,0.6
	c-0.6,0-1.2-0.1-1.8-0.3c-0.5-0.2-1-0.5-1.5-0.8l0.8-1.1C139.3,148.1,140.1,148.4,141,148.4z"/>
<path class="st0" d="M149.4,149.7v-7.3h1.6v7.3H149.4z"/>
<path class="st0" d="M157,142.4h2.6c0.7,0,1.4,0.1,2.1,0.4c0.6,0.3,1,0.7,1.4,1.3c0.3,0.6,0.5,1.2,0.5,1.9c0,0.7-0.2,1.3-0.5,1.9
	c-0.3,0.6-0.8,1-1.4,1.3c-0.7,0.3-1.4,0.5-2.1,0.4H157V142.4z M159.6,148.3c0.6,0,1.3-0.2,1.7-0.6c0.4-0.5,0.7-1.1,0.6-1.7
	c0-0.6-0.2-1.3-0.6-1.7c-0.5-0.4-1.1-0.6-1.7-0.6h-1v4.6H159.6z"/>
<path class="st0" d="M170.8,145.4h3.1v1.3h-3.1v1.6h3.5v1.4h-5.1v-7.3h5.1v1.4h-3.5V145.4z"/>
<path class="st0" d="M186.2,142.4v7.3h-1.5l-3.3-4.5v4.5h-1.6v-7.3h1.5l3.3,4.6v-4.6H186.2z"/>
<path class="st0" d="M198,149.2c-0.7,0.4-1.4,0.6-2.2,0.6c-0.7,0-1.4-0.2-2-0.5c-0.6-0.3-1.1-0.8-1.4-1.4c-0.3-0.6-0.5-1.3-0.5-1.9
	c0-1.4,0.7-2.6,1.9-3.3c0.6-0.3,1.3-0.5,2-0.5c0.8,0,1.5,0.2,2.2,0.6c0.6,0.4,1,0.9,1.3,1.5l-1.5,0.6c-0.2-0.4-0.5-0.7-0.8-0.9
	c-0.4-0.2-0.8-0.3-1.2-0.3c-0.4,0-0.8,0.1-1.2,0.3c-0.3,0.2-0.6,0.5-0.8,0.8c-0.4,0.7-0.4,1.6,0,2.4c0.2,0.3,0.5,0.6,0.8,0.8
	c0.4,0.2,0.8,0.3,1.2,0.3c0.4,0,0.8-0.1,1.2-0.4c0.3-0.2,0.6-0.5,0.7-0.9l1.5,0.6C199,148.3,198.5,148.9,198,149.2z"/>
<path class="st0" d="M204.7,149.7v-7.3h1.6v7.3H204.7z"/>
<path class="st0" d="M217,148.2h-3.2l-0.6,1.4h-1.7l3-7.3h1.7l3,7.3h-1.7L217,148.2z M216.5,146.9l-1.1-2.7l-1.1,2.7H216.5z"/>
<path class="st0" d="M229.7,149.7h-5.1v-7.3h1.6v5.9h3.5V149.7z"/>
<path class="st0" d="M33.9,118.2c0,0.7,0,1.3-0.1,2c-0.2,1.7-0.7,3.3-1.7,4.8c-1,1.4-2.3,2.6-3.8,3.3c-1.7,0.8-3.6,1.2-5.5,1.2
	c-2,0-4-0.5-5.8-1.4c-1.7-0.9-3.1-2.3-4-4c-2-3.5-2-7.7,0-11.2c1-1.7,2.4-3.1,4-4c1.8-1,3.8-1.5,5.8-1.4c2.1-0.1,4.2,0.5,6,1.5
	c1.6,1,2.9,2.4,3.9,4.1l-4.1,1.9c-1.2-2.1-3.4-3.3-5.8-3.3c-1.2,0-2.4,0.3-3.4,0.9c-1,0.6-1.8,1.5-2.4,2.5c-0.6,1.1-0.9,2.2-0.9,3.5
	c0,1.2,0.3,2.4,0.9,3.4c0.6,1,1.4,1.8,2.4,2.4c1,0.6,2.2,0.9,3.4,0.9c1.4,0,2.9-0.4,4-1.2c1.1-0.8,1.8-2,2-3.3h-7.4V117h12.4
	L33.9,118.2z"/>
<path class="st0" d="M67.6,124.8h-9.2l-1.7,4.2h-5l8.8-21.3h5l8.8,21.3h-5L67.6,124.8z M66.1,121l-3.1-8l-3.1,8H66.1z"/>
<path class="st0" d="M108.8,129.1H94.1v-21.3h4.6v17.3h10.2V129.1z"/>
<path class="st0" d="M128.9,129.1v-21.3h4.6v21.3H128.9z"/>
<path class="st0" d="M172,127.8c-1.9,1.2-4.1,1.8-6.3,1.7c-2,0-4-0.5-5.8-1.4c-1.7-0.9-3.1-2.3-4.1-3.9c-2-3.5-2-7.8,0-11.3
	c1-1.7,2.4-3,4.1-3.9c1.8-1,3.8-1.5,5.8-1.4c2.2-0.1,4.4,0.5,6.3,1.7c1.7,1.1,3,2.6,3.7,4.4l-4.2,1.7c-0.5-1-1.3-1.9-2.3-2.6
	c-1-0.7-2.3-1-3.5-1c-1.2,0-2.4,0.3-3.4,0.9c-1,0.6-1.9,1.4-2.4,2.4c-1.2,2.1-1.2,4.7,0,6.9c1.2,2.1,3.4,3.4,5.8,3.3
	c1.3,0,2.5-0.3,3.6-1c1-0.6,1.7-1.5,2.2-2.6l4.3,1.7C175,125.2,173.7,126.7,172,127.8z"/>
<path class="st0" d="M196.1,129.1v-21.3h4.6v21.3H196.1z"/>
<path class="st0" d="M236.4,124.8h-9.2l-1.7,4.2h-5l8.8-21.3h5l8.7,21.3h-5L236.4,124.8z M234.9,121l-3.1-8l-3.1,8H234.9z"/>
<path class="st0" d="M154.3,44.8c2.2-2.6,4-5.3,5.6-8.3c0.4-0.9,0.8-1.7,1.2-2.6c0.1-0.2,0.2-0.5,0.3-0.7c-0.7-1.5-1.4-3-2.3-4.4
	c-1.4,4.1-4.3,10.1-7.2,12.9c-0.5-0.8-0.9-1.7-1.2-2.7l-1.4-5.8c-0.5-3-0.7-6.1-0.6-9.2c0.1-2.5,0.5-4.2,0.6-5.9
	c-1.1-0.8-2.2-1.5-3.4-2.2c-0.5,2.4-0.8,4.8-0.9,7.3c0,0.8,0,1.5-0.1,2.2c-3.8-1.2-7.5-4.1-10-6.6c-0.9-0.9-1.8-1.9-2.5-3
	c-1.1-1.5-2-3.2-2.6-4.9c-1.3-0.1-2.7-0.1-4-0.1c0.5,7.3,12.6,15.9,19.1,18.6c1.5,5.2,1.2,8.2,3.7,14.2c0.1,0.3,0.3,0.6,0.6,0.8
	c-1.6,1.7-3.5,3-5.6,4.1c-0.5,0.3-1,0.5-1.5,0.8c0.1-1.8-0.1-3.5-0.6-5.2c-2.2-7.4-9.7-11.9-17.2-10.4c-3.2-2.6-6.8-4.6-10.8-5.8
	l0.3-1.7c3.8-1.6,9.5-5.1,12-8c-0.5-0.8-1.4-3-1.8-3.4c-2.2,2.4-4.8,4.4-7.6,5.9c-0.6,0.3-2.1,1.5-2.8,1.3c-0.2-1.4-0.5-2.8-0.9-4.2
	c-0.3-1.2-0.8-2.3-1.3-3.4c-1.1,0.5-2.2,1.1-3.3,1.7c0.7,1.6,1.3,3.2,1.6,4.9c0.2,1,0.8,4.8,0.1,5.9c-3.1-0.6-6.2-0.9-9.3-0.7
	c-1.2,0.1-2.4,0.1-3.7,0.3c-1,1.3-1.8,2.7-2.6,4.1c0.2-0.1,0.5-0.1,0.7-0.2c1.9-0.3,3.7-0.5,5.6-0.6c2.7-0.1,5.4,0.1,8,0.6l-1.8,2.4
	l-0.7,0.6c-2,2.5-7,6.2-9.4,7.5L90,44.4c-0.1,1.3-0.2,2.6-0.2,3.9l6.1-2.4c0.7-0.5,1.4-0.8,2.2-1.1c0.5,3.3,0.4,6.7-0.3,10
	c-0.6,3-1.8,5.9-3.4,8.4c-0.3,0.5-0.6,0.9-1,1.3c0.6,1.2,1.2,2.3,1.9,3.5c0.5-0.6,1.1-1.3,1.6-2c5-7.1,6-15.2,4.6-23.5l3-2.2
	c3.2-2.5,5.9-5.5,8-8.9c2.7,1,5.4,2.3,7.8,3.9c-7.3,3.9-10.1,13-6.2,20.4c0.5,0.8,1,1.6,1.6,2.4c-0.2,1.2-0.3,2.4-0.4,3.7
	c-0.1,1.6-0.1,3.2,0,4.7c0.1,1.5,0.6,4.1,0.6,4.5c-1.9,1-1.4,0.7-3.1-0.4c-2.3-1.6-9.3-5.3-11.4-5.3l-2.1,3.2
	c0.8,0.3,1.9,0.5,2.7,0.7c3.1,1.1,6.1,2.6,8.9,4.5c-0.9,1.1-2.5,1.7-5.3,5.6c1,0.7,2,1.4,3.1,2c2-3,4.8-5.3,8.1-6.7l1.9,4.4
	c1.2,2.4,2.7,4.8,4.2,7.1c1.7,0.2,3.3,0.3,5,0.3c-0.2-0.2-0.4-0.5-0.6-0.7c-1.2-1.5-2.4-3.1-3.4-4.8c-0.1-0.1-3.5-6.1-3.1-6.8
	c2.8-0.2,8.5,1.8,11.5,3.2c2.9,1.3,5.6,3,8.2,4.9c0.4,0.3,1,0.8,1.5,1.2c1.3-0.5,2.5-1.1,3.7-1.8c-1-0.9-2.1-1.8-3.2-2.6l-4.1-3
	l2.4-1.7c9.2-5.4,14.9-4.2,17.4-4c0.8-1.1,1.5-2.2,2.1-3.4c-2.5-0.9-7.7-0.5-10.3-0.1c-0.3,0-0.6,0.1-0.9,0.2
	c-1.9,0.4-3.8,1-5.6,1.8c-2.4,1-7.5,3.9-8.7,5.5c-4.7-2.4-9.8-3.7-15-4c-0.2-0.3-0.2-0.7-0.2-1c-0.2-0.9-0.3-1.8-0.4-2.8
	c-0.2-1.8-0.2-3.6-0.1-5.5c0.5,0.3,0.9,0.6,1.4,0.9c7.3,3.9,16.4,1.2,20.3-6.1c0,0,0,0,0,0c0.3-0.6,0.6-1.3,0.9-1.9
	c1.9-0.6,3.7-1.5,5.4-2.5c1.8-1.2,3.3-2.4,5-3.8l1.4,1.1c-0.2,2.4-0.3,4.9-0.2,7.4c0.1,2.1,0.9,6.4,0.9,6.8c1.3,0.3,2.7,0.4,4,0.3
	c0-0.2-0.4-1.3-0.4-1.5c-0.6-2.6-1-5.2-0.9-7.9c-0.1-1.1,0-2.2,0.2-3.2c2.5,0.9,5.2,1.6,7.9,1.9c0.1-1.2,0.2-2.5,0.2-3.7
	C160.5,48,158.4,47.8,154.3,44.8z M135.7,53.4l-6-0.7l-2.4,5.5l-2.4-5.5l-6,0.7l3.6-4.9l-3.6-4.9l6,0.7l2.4-5.5l2.4,5.5l6-0.7
	l-3.6,4.9L135.7,53.4z"/>
<path class="st0" d="M104.2,72.1c-1.6-0.1-3.2,0.4-4.4,1.5c2.3,2.3,6.1,2.5,8.6,0.4C107.4,72.9,105.8,72.2,104.2,72.1z"/>
<path class="st0" d="M114,79.8c0.1,1.5,0.7,2.9,1.8,4c2-2.4,1.8-6-0.4-8.2C114.4,76.8,113.9,78.3,114,79.8z"/>
<path class="st0" d="M130.8,79.2c-1.4-1-3.2-1.4-4.9-1.2c0.7,3.6,4.1,6,7.7,5.5C133.2,81.8,132.2,80.3,130.8,79.2z"/>
<path class="st0" d="M147.1,73.6c-1.8,0.1-3.5,0.8-4.8,2.1c2.9,2.3,7.1,2.1,9.7-0.5C150.7,74,148.9,73.5,147.1,73.6z"/>
<path class="st0" d="M158.5,52.3c-1.4,3.4,0.1,7.4,3.4,9.1C163.3,57.9,161.8,54,158.5,52.3z"/>
<path class="st0" d="M155.8,44.9c1.5,0.5,3.2,0.4,4.6-0.3c1.4-0.7,2.6-1.8,3.2-3.3c-1.5-0.5-3.2-0.4-4.6,0.3
	C157.5,42.2,156.4,43.4,155.8,44.9z"/>
<path class="st0" d="M155.2,28.2c0.4-1.7,0.1-3.6-0.8-5.1c-3,2.2-3.9,6.3-2,9.5C153.9,31.5,154.9,29.9,155.2,28.2z"/>
<path class="st0" d="M95.2,53.9c1-1.5,1.3-3.3,1-5.1c-3.6,1-5.8,4.5-5.2,8.2C92.7,56.5,94.2,55.4,95.2,53.9z"/>
<path class="st0" d="M96.7,37.3c1.7-0.6,3-1.9,3.8-3.5c-3.5-1.3-7.4,0.2-9,3.5C93.2,38,95.1,38,96.7,37.3z"/>
<path class="st0" d="M105,24.2c1.3,0.7,2.9,1,4.3,0.6c-1-3-4.1-4.7-7.2-4C102.7,22.2,103.7,23.4,105,24.2z"/>
<path class="st0" d="M143,21.2c0.5-3.7-1.8-7.1-5.5-8c-0.2,1.8,0.2,3.5,1.2,5C139.7,19.7,141.3,20.8,143,21.2z"/>
<path class="st0" d="M118.9,17.5c0.9-1.5,1.2-3.4,0.8-5.1c-1.7,0.5-3.1,1.7-4,3.2c-0.9,1.5-1.2,3.4-0.8,5.1
	C116.6,20.2,118,19,118.9,17.5z"/>
</svg>
